<svg xmlns="http://www.w3.org/2000/svg" viewBox="0 0 792 612">
  <title>Manual de marca - pelaos</title>
  <g>
    <g>
      <path d="M136.22,291.38c-6.33,0-11.41-3.24-13.57-8.65l-.13-.31-.1-.32c-.56-1.65-.74-2.21-3.8-34.5-4.32-47.57-7-75.12-7.8-81.93l-.08-.7v-1.79c0-8.36,5.51-14.37,13.62-15.17,3.16-1,9.44-1.82,25.41-3.91l.17,0c15.08-1.73,23.73-2.47,28.93-2.47h4.73c8.27.28,13.16.87,16.78,2,10.92,3.38,19.29,9.27,24.87,17.5,5.44,8,8.22,18.21,8.48,31.16v3.27c0,16-4.72,28.49-14,37.22a51.81,51.81,0,0,1-17.48,10.83l-.14,0a112,112,0,0,1-24.8,5.3c.17,1.95.39,4.29.63,6.87l.21,2.32c.62,6.77,1,10.85,1,13.58s0,8.19-4,12.16c-3.18,3.18-6.59,4.11-21.43,5.84A172.08,172.08,0,0,1,136.22,291.38Zm35.94-97.71c.09,1.06.2,2.23.32,3.53,1.8-.25,3.59-.52,4.4-.7a3.66,3.66,0,0,0,.54-.25,5.55,5.55,0,0,0,.12-1.3,4.23,4.23,0,0,0,0-.74l-.23-.12-.15-.07A25.33,25.33,0,0,0,172.16,193.67Z" style="fill: #0d5452"/>
      <path d="M270.26,290.94c-15.43,0-28.84-5.7-38.8-16.49l-.12-.13c-4.67-5.22-8.17-12-10.7-20.72l-.09-.3a70.11,70.11,0,0,1-2.32-17.65A61.47,61.47,0,0,1,224.61,208,48.86,48.86,0,0,1,243,187.47a55.15,55.15,0,0,1,29.66-8.21c12.46,0,23.63,3.85,32.32,11.14l.09.08c9.66,8.27,16.24,20,19.57,34.85l0,.14c1.55,7.35,1.55,8.26,1.55,9.31a14.82,14.82,0,0,1-2.57,8.25l-.17.26-.45.59a15.36,15.36,0,0,1,1,5.69c0,4.12-1.32,8.7-3.94,13.61a48.92,48.92,0,0,1-8.52,11.6c-7.26,7.26-16.74,12.17-28.19,14.59A58.77,58.77,0,0,1,270.26,290.94Z" style="fill: #0d5452"/>
      <path d="M351.21,292c-3.21,0-8.17-.6-17.41-1.84-11.87-1.61-15.86-2.15-19.33-5.61-4-4-4-9.16-4-10.85s.44-6.1,4.76-46.74l1.61-15.17c6.43-59.83,7.43-61.51,8.95-64l.72-1.19,1-1a14.12,14.12,0,0,1,10.19-4.19c2.27,0,5.74.43,15.45,1.67l1.39.18.16,0c14.24,2.24,16.22,2.7,19.09,5.57,4,4,4,9.31,4,11.07,0,3.2-5.13,50.88-6.16,60.4-4.08,38-6.55,58.53-6.84,60.28l-.06.35a13.87,13.87,0,0,1-9.06,10.5l-1.74.58Z" style="fill: #0d5452"/>
      <path d="M443.47,290.94c-5.38,0-9.46-1.1-12.47-3.36l-.27-.21c-.23-.18-.46-.37-.68-.57a60.89,60.89,0,0,1-19,2.84,57,57,0,0,1-10.36-1.07l-.24,0c-12.2-2.56-21.78-8.7-28.47-18.26-6.44-9-9.7-20.49-9.7-34.19v-2.85c.28-7,1.17-12.36,2.81-16.81,5.6-16.62,18-27.83,35.94-32.45l.3-.08.3-.06A68.68,68.68,0,0,1,415,182.52a75.7,75.7,0,0,1,7.84.38c.36-.4.73-.8,1.12-1.19a17,17,0,0,1,8.84-5.06c1.51-.3,3.46-.47,7.71-.83l2.09-.19a39.63,39.63,0,0,1,5.7-.29,18.32,18.32,0,0,1,8.62,2.1c4.72,2.23,7.72,5.4,8.93,9.46.87,2.47,2,8.19,4.42,44.72l3.08,44.23-3,4.94a17.31,17.31,0,0,1-9.83,8.43c-3.18,1.18-7,1.44-12.58,1.71h-4.46Zm-30.63-58.38c0,.42,0,.87,0,1.34a26.75,26.75,0,0,0,.81,6.51c0-.27,0-.52,0-.74,0-.4-.08-.95-.14-1.64s-.16-1.6-.24-2.58S413,233.42,412.84,232.56Z" style="fill: #0d5452"/>
      <path d="M510.48,291.59c-8.67,0-14.16-.66-18.3-2.23-14.1-5.1-31.54-17.78-34.94-49.2a52.32,52.32,0,0,1-.31-7.34c0-18.1,5.55-32.4,16.49-42.5,9.24-8.43,20.74-13.49,34.23-15.09a50,50,0,0,1,7.19-.32c11.29,0,21.34,2.93,29.86,8.7a49.89,49.89,0,0,1,19,24.08c2.84,7.48,4.22,16.27,4.22,26.87a66.57,66.57,0,0,1-2.2,18.43l-.1.3c-3.18,9.81-8.12,17.82-14.67,23.81A58.09,58.09,0,0,1,530.26,289C525.31,290.75,518.84,291.59,510.48,291.59Zm1.29-54a25.79,25.79,0,0,0,2.08,5.88,28.74,28.74,0,0,0,.53-6.47,28.15,28.15,0,0,0-.47-6.59l-.09-.31-.06-.32a22.8,22.8,0,0,0-2.32-6.84l-.09.21a26.55,26.55,0,0,0-.41,5.8A45,45,0,0,0,511.77,237.54Z" style="fill: #0d5452"/>
      <path d="M610.58,291.38a79.88,79.88,0,0,1-31.92-6.16c-10.43-4.51-17.8-11-21.9-19.35A39.23,39.23,0,0,1,552,246.74c0-7.1,3.65-10.91,5.83-12.55l1.48-1.11,1.76-.58.14-.05a15.78,15.78,0,0,1,2.42-.69,32.16,32.16,0,0,1-4.2-13.77l0-.42v-3c0-9.33,2.68-17.36,8-23.89a36.16,36.16,0,0,1,21.31-12.89,48.92,48.92,0,0,1,8.83-.67,94.27,94.27,0,0,1,14.3,1l.21,0c17.43,2.95,29.7,10,36.47,20.87a37,37,0,0,1,5.84,19.69c0,7.12-3.18,11-5.85,13l-.81.61-1.24.62a34.78,34.78,0,0,1,6.16,20,41.56,41.56,0,0,1-4.34,18.1C643.9,280.28,633.82,291.38,610.58,291.38Z" style="fill: #0d5452"/>
    </g>
    <path d="M178.87,152.73h4.35c6.53.22,11.1.66,13.71,1.53q12.73,3.92,18.93,13.06c4.14,6.09,6.32,14.36,6.53,25v3c0,12.84-3.48,22.41-10.44,28.94a40.46,40.46,0,0,1-13.71,8.49c-5.44,2-13.06,3.7-23.07,4.78-5.22.66-8.27,1.31-8.92,2-.44.44-.65,1.74-.65,3.92,0,2.39.43,7,1.08,13.93.66,7.18,1.09,11.75,1.09,14.14s-.21,3.7-.65,4.14c-.65.65-5.44,1.52-14.8,2.61a161.47,161.47,0,0,1-16.1,1.52c-1.52,0-2.61-.43-3.05-1.52q-.33-1-3.26-32-6.52-71.82-7.84-82.26V163c0-2.61,1.31-3.91,4.14-3.91a2.84,2.84,0,0,0,2.17-.66q.33-.31,22.85-3.26C164.51,153.61,173.87,152.73,178.87,152.73Zm-7.18,29.38q-9.47,0-11.1,2c-.65.65-.65,1.74-.43,3.27.21.65.43,4.35,1.08,11.31.66,6.1,1.09,9.36,1.75,10a2.43,2.43,0,0,0,1.74.66c.65,0,2.83-.22,6.09-.66a91.71,91.71,0,0,0,9.36-1.52c5.87-2,8.7-6.09,8.7-12.41,0-5.22-2.18-8.92-6.75-11.09C180.18,182.55,176.69,182.11,171.69,182.11Z" style="fill: #fff"/>
    <path d="M272.65,190.38c9.8,0,18.28,2.83,25,8.49,7.62,6.53,13.06,16.1,15.88,28.72.87,4.14,1.31,6.53,1.31,7a3.58,3.58,0,0,1-.65,2c-.66.87-9.36,2.39-26.55,4.35-17.19,2.17-26.12,3.48-26.55,3.92a2.49,2.49,0,0,0-.44,1.52c0,1.52.87,3.7,2.62,6.09a12.57,12.57,0,0,0,10.88,5.44,10.24,10.24,0,0,0,8.7-4.13c2-2.4,3.48-3.92,4.57-4.35s5-1.09,11.32-1.75c6.74-.65,10.66-1.08,11.31-1.08a2.78,2.78,0,0,1,1.74.43,2.71,2.71,0,0,1,.87,2.4c0,2.17-.87,5-2.61,8.26a37.49,37.49,0,0,1-6.53,8.93c-5.65,5.65-13.27,9.57-22.63,11.53a47.56,47.56,0,0,1-10.66,1.31c-12.41,0-22.63-4.36-30.47-12.84-3.7-4.14-6.31-9.58-8.27-16.32a59.16,59.16,0,0,1-2-14.8,50.13,50.13,0,0,1,5.22-22.63,37.18,37.18,0,0,1,14.14-15.89A43.69,43.69,0,0,1,272.65,190.38Zm-1.3,20.68a17.06,17.06,0,0,0-7.4,2.39c-3.05,1.52-4.79,4.13-5.22,8.27a5.94,5.94,0,0,0-.22,2c0,1.52,1.09,2.17,3,2.17.44,0,3.49-.21,8.93-.87,7.18-.87,10.88-1.3,11.31-1.52a1.75,1.75,0,0,0,1.31-2,9.75,9.75,0,0,0-2-5,12.8,12.8,0,0,0-5-4.14A10,10,0,0,0,271.35,211.06Z" style="fill: #fff"/>
    <path d="M337.71,152.52c1.74,0,6.75.65,15.24,1.74,8.27,1.3,12.62,2.17,12.84,2.39a4.88,4.88,0,0,1,.65,3c0,1.09-2,20.89-6.09,59.19-4.14,38.52-6.53,58.32-6.75,59.63a2.46,2.46,0,0,1-1.52,2h-.87c-2.62,0-7.84-.65-15.89-1.74s-12.19-1.74-12.84-2.39c-.43-.44-.65-1.31-.65-2.83s2.17-21.76,6.31-60.71c4.13-38.52,6.74-58.32,7.4-59.41A2.75,2.75,0,0,1,337.71,152.52Z" style="fill: #fff"/>
    <path d="M448.26,186.46a6.82,6.82,0,0,1,3.48.88c2,.87,3.05,1.74,3.26,2.82.87,2.18,2.18,16.11,3.92,42l2.83,40.7L460.44,275a6,6,0,0,1-3.7,3.27c-1.52.65-4.78.87-9.35,1.09h-3.92c-2.83,0-4.79-.44-5.66-1.09a9.43,9.43,0,0,1-2.61-3.7c-.44-1.09-.87-2-.87-2a3.08,3.08,0,0,0-1.52.44c-5.88,3.26-13.28,5-21.76,5a46.43,46.43,0,0,1-8.27-.87q-14-2.94-21.55-13.71c-5-7-7.61-16.1-7.61-27.64v-2.39c.21-5.44.87-10,2.17-13.49,4.35-13.06,13.71-21.55,28.07-25.25a56.75,56.75,0,0,1,11.1-1.08,48.27,48.27,0,0,1,11.32,1.08l2.83.87.43-2.17a7.69,7.69,0,0,1,2.4-3.92,6,6,0,0,1,3-2c1.09-.21,3.92-.43,8.92-.87A27.53,27.53,0,0,1,448.26,186.46ZM413,215.19a9.15,9.15,0,0,0-8.27,4.79q-3.25,4.89-3.26,13.71a39.31,39.31,0,0,0,3,15c2,5,5,7.4,9.14,7.4a8.47,8.47,0,0,0,6.31-2.83c3.26-3,5-7.61,5-13.92,0-.88-.21-2.62-.43-5.23-1.09-9.79-3.92-15.67-8.27-18.06A6.19,6.19,0,0,0,413,215.19Z" style="fill: #fff"/>
    <path d="M514.84,186c8.92,0,16.75,2.18,23.5,6.75a38.43,38.43,0,0,1,14.8,18.71c2.39,6.31,3.48,13.93,3.48,22.85a55.09,55.09,0,0,1-1.74,15.23c-2.61,8.05-6.53,14.36-11.54,18.94a47,47,0,0,1-16.75,9.57c-3.7,1.31-9.14,2-16.11,2-6.74,0-11.53-.44-14.36-1.52-16.32-5.88-25.46-19.37-27.63-40a41.65,41.65,0,0,1-.22-5.87c0-15,4.35-26.33,12.84-34.17,7.4-6.74,16.75-10.88,28.07-12.18A39.93,39.93,0,0,1,514.84,186Zm-3.27,24.37a9.89,9.89,0,0,0-6.31,2.4,13.68,13.68,0,0,0-4.35,5.65c-.87,2-1.31,5.23-1.31,10.23a56.55,56.55,0,0,0,1.09,11.1c2.4,9.79,6.31,15,11.75,15.89h.87a1.12,1.12,0,0,0,.66.21q7.17,0,10.44-8.48c.87-2.4,1.31-6.1,1.31-10.67a38.86,38.86,0,0,0-.87-9.57c-1.53-7.18-3.92-12-7.4-14.58A9.43,9.43,0,0,0,511.57,210.4Z" style="fill: #fff"/>
    <path d="M597.52,188.21a82.93,82.93,0,0,1,12.62.87q21.23,3.58,28.73,15.67a25.65,25.65,0,0,1,4.13,13.7c0,2-.43,3.27-1.3,3.92l-.44.22h-.65c-1.09,0-4.79-.65-11.32-2-6.31-1.31-10-2.18-11.53-2.83a3,3,0,0,1-2.18-3c0-1.09-.65-2.18-1.74-3.49a12.63,12.63,0,0,0-3.91-2.61,11.77,11.77,0,0,0-3.92-.87,6.71,6.71,0,0,0-4.14,1.31,4.15,4.15,0,0,0-1.74,3.26c0,2.83,5,6.53,15,11.32q8.16,3.91,12.4,6.53c9.14,5.87,13.71,13.27,13.71,22.41A30.63,30.63,0,0,1,638,265.89c-4.36,9.36-13.5,13.93-27.42,13.93a68.48,68.48,0,0,1-27.42-5.22c-8-3.48-13.49-8.27-16.32-14.15a28.07,28.07,0,0,1-3.48-13.92c0-1.74.43-2.83,1.3-3.49a5.29,5.29,0,0,1,1.74-.43q1,0,11.75,2c6.31,1.09,10,2,11.54,2.61a3.25,3.25,0,0,1,2.17,3.26,8.67,8.67,0,0,0,3.48,6.75,11.23,11.23,0,0,0,7.84,2.83c2.83,0,5-.87,6.09-2.83a5.39,5.39,0,0,0,.87-3.05c0-1.74-1.09-3.48-3.48-5.22a104.79,104.79,0,0,0-12.84-7.18,69.78,69.78,0,0,1-15-9.36c-5-4.57-7.62-9.57-8.06-15.45v-2.61c0-6.53,1.75-12.19,5.45-16.76A24.76,24.76,0,0,1,591,188.64,37.1,37.1,0,0,1,597.52,188.21Z" style="fill: #fff"/>
    <path d="M652.25,96.61H112.83a44.78,44.78,0,0,0-44.64,44.65V297.5a44.77,44.77,0,0,0,44.64,44.64H536.48l59.84,32.2a1,1,0,0,0,1.35-1.21l-9.56-23.73a3.9,3.9,0,0,1,1.89-4.95l2.24-2.31h60a44.77,44.77,0,0,0,44.64-44.64V141.26A44.78,44.78,0,0,0,652.25,96.61Z" style="fill: none;stroke: #0f5452;stroke-miterlimit: 10;stroke-width: 10px"/>
  </g>
</svg>
