<svg xmlns="http://www.w3.org/2000/svg" viewBox="0 0 766.64 344.39">
  <title>PELAOS</title>
  <g>
    <g>
      <path d="M12.1,193.74c-6.64,0-11.95-3.35-14.2-9l-.12-.31-.11-.31c-.56-1.71-.8-2.41-4.46-41-5.2-57.25-8.36-90.43-9.39-98.66l-.09-.7v-2c0-8.88,5.92-15.24,14.6-16,3.36-1.17,10.44-2.09,30.37-4.69l.18,0c17.81-2.05,28.47-3,34.55-3H69c9.74.32,15.43,1,19.57,2.36,12.64,3.91,22.3,10.69,28.72,20.15,6.3,9.27,9.5,21.13,9.81,36.26v3.89c0,18.55-5.43,33.06-16.15,43.11a60.25,60.25,0,0,1-20.27,12.56l-.14.05c-8.07,2.9-18.26,5-30.29,6.35L59,143c.22,2.76.56,6.41.95,10.58l.25,2.69c.73,8.09,1.18,13,1.18,16.16,0,4.62-.5,9.39-4.12,13-3.12,3.13-6.53,4.28-24.44,6.37A204.3,204.3,0,0,1,12.1,193.74ZM53.69,85.32c2.94-.4,6.74-.94,8-1.25,1.83-.63,2.43-1.11,2.43-4.07,0-2.33-.49-2.56-1.66-3.12l-.37-.18c-.47-.14-2.33-.55-7.33-.55-.7,0-1.35,0-1.94,0,.17,2,.38,4.44.66,7.41C53.54,84,53.61,84.64,53.69,85.32Z" transform="translate(74.78 43.35)" style="fill: #0c5452"/>
      <path d="M173.41,193.21c-18.16,0-33.3-6.42-45-19.1l-.12-.13c-5.39-6-9.44-13.88-12.39-24l-.09-.3A82.34,82.34,0,0,1,113.1,129a71.6,71.6,0,0,1,7.45-32.24A56.45,56.45,0,0,1,141.8,73a64.13,64.13,0,0,1,34.49-9.54c14.65,0,27.23,4.33,37.41,12.87l.09.07C225,86,232.7,99.69,236.59,117.06l0,.14c1.82,8.62,1.82,9.64,1.82,10.72a15.52,15.52,0,0,1-2.7,8.66l-.17.26-.19.25a12.18,12.18,0,0,1-1.19,1.37,15.76,15.76,0,0,1,1.63,7.27c0,4.58-1.51,9.72-4.48,15.29a56.37,56.37,0,0,1-9.84,13.42c-8.42,8.42-19.45,14.12-32.79,16.93A68.17,68.17,0,0,1,173.41,193.21Z" transform="translate(74.78 43.35)" style="fill: #0c5452"/>
      <path d="M270.83,194.52c-3.73,0-9.63-.71-20.64-2.19-14.07-1.91-18.32-2.48-21.94-6.1-4.11-4.12-4.11-9.62-4.11-11.43,0-2,.79-9.66,5.74-56.25l1.91-18c7.68-71.5,9-73.64,10.46-76.13l.72-1.2,1-1a14.72,14.72,0,0,1,10.63-4.37c2.59,0,6.73.51,18.33,2l1.61.21.16,0c17.89,2.83,18.94,3.29,21.71,6.08,4.1,4.09,4.1,9.8,4.1,11.67,0,3.88-7.09,69.66-7.4,72.45-4.9,45.71-7.86,70.32-8.2,72.41l-.07.36a14.36,14.36,0,0,1-9.37,10.89l-1.74.58Z" transform="translate(74.78 43.35)" style="fill: #0c5452"/>
      <path d="M381.87,193.21c-5.95,0-10.41-1.17-13.62-3.58l-.27-.21a20.16,20.16,0,0,1-1.69-1.52,70,70,0,0,1-23.44,3.74,66.66,66.66,0,0,1-12-1.24l-.24-.05c-14.1-2.95-25.16-10-32.86-21-7.46-10.43-11.25-23.82-11.25-39.81v-3.34c.33-8.09,1.39-14.49,3.26-19.56C296.21,87.36,310.6,74.37,331.38,69l.3-.08.3-.06a79.3,79.3,0,0,1,15.58-1.53,86.2,86.2,0,0,1,10.4.57,29.21,29.21,0,0,1,2-2.22,18.21,18.21,0,0,1,9.46-5.46c1.7-.34,4-.54,9.06-1L381,59a46.2,46.2,0,0,1,6.59-.33A19.7,19.7,0,0,1,397,61c5.11,2.4,8.32,5.77,9.59,10,1,2.71,2.26,9.28,5.22,53.26l3.65,52.51-3.23,5.38a18.51,18.51,0,0,1-10.59,9.1c-3.52,1.32-7.91,1.62-14.49,1.93h-5.25Zm-37.23-76.47c-.76,1.19-2,4-2,10.14a35.94,35.94,0,0,0,2.82,13.77l.07.16a10.24,10.24,0,0,0,.51,1.14c1.46-1.54,2.2-4.3,2.21-8.19,0-.35-.11-1.34-.19-2.14s-.18-1.93-.28-3.12C347,121.55,345.59,118.25,344.64,116.74Z" transform="translate(74.78 43.35)" style="fill: #0c5452"/>
      <path d="M462.52,194c-10.16,0-16.52-.76-21.23-2.54-16.35-5.92-36.6-20.68-40.56-57.35a60.84,60.84,0,0,1-.35-8.54c0-21.12,6.42-37.76,19.1-49.45,10.76-9.82,24.18-15.71,39.93-17.57a56.66,56.66,0,0,1,8.35-.37c13.12,0,24.78,3.39,34.64,10.07a57.84,57.84,0,0,1,22.06,27.9c3.31,8.73,4.92,19,4.92,31.51,0,8.52-.86,15.77-2.55,21.53l-.1.3c-3.7,11.43-9.43,20.73-17,27.66A67.55,67.55,0,0,1,485.58,191C479.86,193,472.32,194,462.52,194Zm4.76-52a9.56,9.56,0,0,0,1.37-2.56c.16-.47.87-2.93.87-8.89,0-5.09-.36-7.45-.65-8.53l-.09-.32-.07-.32c-1.67-7.91-3.78-10.2-4.61-10.82l-.34-.26a5.51,5.51,0,0,0-.56.39,5.28,5.28,0,0,0-1.67,2.07l-.08.2-.09.2c0,.09-.59,1.82-.59,7.7a57.13,57.13,0,0,0,1,10.9c1.78,7.15,3.83,9.66,4.6,10.24Z" transform="translate(74.78 43.35)" style="fill: #0c5452"/>
      <path d="M583,193.74c-13.8,0-26.42-2.43-37.5-7.22-12.05-5.21-20.53-12.69-25.22-22.23a45,45,0,0,1-5.45-22c0-7.18,3.32-11.17,6.11-13.26L522.4,128l1.75-.58.22-.08a15.67,15.67,0,0,1,5.45-1h.7a36.66,36.66,0,0,1-6.77-18.74l0-.42v-3.56c0-10.68,3-19.86,9.07-27.3a41.29,41.29,0,0,1,24.32-14.71,55.07,55.07,0,0,1,10.16-.76A111.45,111.45,0,0,1,584.14,62l.21,0c20.29,3.43,34.52,11.52,42.31,24.05a42.27,42.27,0,0,1,6.68,22.48c0,7.62-3.32,11.71-6.11,13.79l-.82.61-3.75,1.88a39.7,39.7,0,0,1,8.59,24.84,47.73,47.73,0,0,1-5,20.8C621.28,181.09,609.75,193.74,583,193.74Z" transform="translate(74.78 43.35)" style="fill: #0c5452"/>
    </g>
    <path d="M63.43,29.19h5.24C76.52,29.45,82,30,85.16,31Q100.49,35.75,108,46.74c5,7.33,7.6,17.28,7.86,30.11v3.67c0,15.45-4.19,27-12.58,34.83a48.67,48.67,0,0,1-16.49,10.22C80.19,127.92,71,130,59,131.33c-6.29.78-10,1.57-10.74,2.36-.53.52-.79,2.09-.79,4.71,0,2.88.53,8.38,1.31,16.76.79,8.64,1.31,14.14,1.31,17s-.26,4.46-.78,5c-.79.79-6.55,1.83-17.81,3.14-10.22,1.31-16.76,1.84-19.38,1.84-1.84,0-3.15-.53-3.67-1.84Q8,179.13,4.5,141.8q-7.86-86.42-9.43-99V41.5c0-3.14,1.57-4.72,5-4.72A3.5,3.5,0,0,0,2.67,36q.39-.39,27.5-3.93C46.14,30.24,57.4,29.19,63.43,29.19ZM54.78,64.55q-11.39,0-13.35,2.35c-.79.79-.79,2.1-.53,3.93.27.79.53,5.24,1.31,13.62.79,7.33,1.31,11.26,2.1,12a3,3,0,0,0,2.09.78c.79,0,3.41-.26,7.34-.78A107.48,107.48,0,0,0,65,94.66c7.07-2.35,10.47-7.33,10.47-14.92,0-6.29-2.61-10.74-8.11-13.36C65,65.07,60.81,64.55,54.78,64.55Z" transform="translate(74.78 43.35)" style="fill: #fff"/>
    <path d="M176.29,74.5c11.79,0,22,3.4,30.12,10.21,9.17,7.86,15.72,19.38,19.12,34.57,1.05,5,1.57,7.86,1.57,8.38a4.25,4.25,0,0,1-.78,2.36c-.79,1-11.27,2.88-32,5.24-20.69,2.62-31.42,4.19-32,4.71a3.07,3.07,0,0,0-.52,1.83c0,1.84,1.05,4.46,3.14,7.34a15.16,15.16,0,0,0,13.1,6.55,12.34,12.34,0,0,0,10.47-5c2.36-2.88,4.19-4.71,5.5-5.24s6-1.31,13.62-2.09c8.12-.79,12.83-1.31,13.62-1.31a3.37,3.37,0,0,1,2.09.52c.79.52,1,1.57,1,2.88,0,2.62-1,6-3.14,9.95a45.18,45.18,0,0,1-7.86,10.74c-6.81,6.81-16,11.52-27.23,13.88a57.14,57.14,0,0,1-12.84,1.57c-14.93,0-27.23-5.24-36.66-15.45-4.46-5-7.6-11.52-10-19.64a70.48,70.48,0,0,1-2.36-17.81,60.33,60.33,0,0,1,6.28-27.24,44.8,44.8,0,0,1,17-19.12A52.58,52.58,0,0,1,176.29,74.5Zm-1.57,24.88c-2.35,0-5.5,1-8.9,2.88-3.67,1.83-5.76,5-6.29,9.95a7.32,7.32,0,0,0-.26,2.36c0,1.83,1.31,2.62,3.67,2.62.52,0,4.19-.26,10.73-1,8.65-1,13.1-1.57,13.62-1.83a2.11,2.11,0,0,0,1.57-2.36,11.83,11.83,0,0,0-2.35-6,15.48,15.48,0,0,0-6-5A11.88,11.88,0,0,0,174.72,99.38Z" transform="translate(74.78 43.35)" style="fill: #fff"/>
    <path d="M254.59,28.93c2.1,0,8.12.78,18.34,2.09,9.95,1.57,15.19,2.62,15.45,2.88.52.53.78,1.84.78,3.67,0,1.31-2.35,25.14-7.33,71.24-5,46.35-7.86,70.18-8.12,71.75a3,3,0,0,1-1.83,2.36h-1.05c-3.14,0-9.43-.78-19.12-2.09s-14.66-2.1-15.45-2.88c-.52-.53-.79-1.58-.79-3.41s2.62-26.19,7.6-73.07c5-46.35,8.12-70.18,8.9-71.49A3.37,3.37,0,0,1,254.59,28.93Z" transform="translate(74.78 43.35)" style="fill: #fff"/>
    <path d="M387.63,69.78a8.35,8.35,0,0,1,4.19,1c2.36,1,3.67,2.1,3.93,3.41,1.05,2.61,2.62,19.38,4.71,50.54l3.41,49-1.57,2.61a7.2,7.2,0,0,1-4.46,3.93c-1.83.79-5.76,1-11.26,1.31h-4.71c-3.41,0-5.76-.52-6.81-1.31a11.27,11.27,0,0,1-3.14-4.45c-.53-1.31-1.05-2.36-1.05-2.36A3.7,3.7,0,0,0,369,174c-7.07,3.93-16,6-26.19,6a55.19,55.19,0,0,1-10-1Q316,175.46,307,162.49c-6-8.38-9.17-19.38-9.17-33.26v-2.88c.26-6.55,1.05-12,2.62-16.24,5.24-15.71,16.5-25.92,33.78-30.37a67.64,67.64,0,0,1,13.36-1.31,57.59,57.59,0,0,1,13.62,1.31l3.4,1,.53-2.62A9.23,9.23,0,0,1,368,73.45a7.29,7.29,0,0,1,3.67-2.36c1.3-.26,4.71-.52,10.73-1A32.44,32.44,0,0,1,387.63,69.78ZM345.2,104.35a11,11,0,0,0-9.95,5.76q-3.93,5.9-3.93,16.51A47.39,47.39,0,0,0,335,144.69c2.36,6,6,8.9,11,8.9a10.19,10.19,0,0,0,7.59-3.4c3.93-3.67,6-9.17,6-16.77,0-1-.26-3.14-.53-6.28-1.3-11.79-4.71-18.86-9.95-21.74A7.45,7.45,0,0,0,345.2,104.35Z" transform="translate(74.78 43.35)" style="fill: #fff"/>
    <path d="M467.76,69.26c10.74,0,20.17,2.62,28.28,8.12A46.2,46.2,0,0,1,513.85,99.9c2.88,7.6,4.19,16.76,4.19,27.5,0,7.86-.78,13.88-2.09,18.33-3.14,9.69-7.86,17.29-13.88,22.79A56.57,56.57,0,0,1,481.9,180c-4.45,1.57-11,2.36-19.38,2.36-8.12,0-13.88-.53-17.28-1.84-19.64-7.07-30.64-23.3-33.26-48.18a49.29,49.29,0,0,1-.27-7.07c0-18.08,5.24-31.69,15.46-41.12,8.9-8.12,20.16-13.1,33.78-14.67A49,49,0,0,1,467.76,69.26Zm-3.93,29.33a11.92,11.92,0,0,0-7.59,2.88,16.54,16.54,0,0,0-5.24,6.81c-1.05,2.36-1.57,6.29-1.57,12.31A67.56,67.56,0,0,0,450.74,134c2.88,11.78,7.59,18.07,14.14,19.12h1.05a1.28,1.28,0,0,0,.78.26q8.64,0,12.57-10.22c1.05-2.88,1.57-7.33,1.57-12.83a46.94,46.94,0,0,0-1-11.52c-1.84-8.65-4.72-14.41-8.91-17.55A11.3,11.3,0,0,0,463.83,98.59Z" transform="translate(74.78 43.35)" style="fill: #fff"/>
    <path d="M567.27,71.88a100.55,100.55,0,0,1,15.19,1.05Q608,77.25,617,91.78a31,31,0,0,1,5,16.5q0,3.54-1.57,4.72l-.52.26h-.79c-1.31,0-5.76-.79-13.62-2.36-7.59-1.57-12-2.62-13.88-3.4s-2.61-1.84-2.61-3.67c0-1.31-.79-2.62-2.1-4.19a14.78,14.78,0,0,0-4.71-3.14,14,14,0,0,0-4.72-1,8,8,0,0,0-5,1.57,5,5,0,0,0-2.1,3.93c0,3.4,6,7.86,18.07,13.62q9.82,4.71,14.93,7.85c11,7.07,16.5,16,16.5,27a36.78,36.78,0,0,1-3.93,16c-5.24,11.26-16.24,16.76-33,16.76q-18.47,0-33-6.29c-9.69-4.19-16.23-9.95-19.64-17a33.91,33.91,0,0,1-4.19-16.76c0-2.1.52-3.41,1.57-4.19a6,6,0,0,1,2.1-.53q1.17,0,14.14,2.36c7.6,1.31,12,2.36,13.88,3.14a3.93,3.93,0,0,1,2.62,3.93,10.43,10.43,0,0,0,4.19,8.12,13.48,13.48,0,0,0,9.43,3.4c3.4,0,6-1,7.33-3.4a6.53,6.53,0,0,0,1.05-3.67c0-2.09-1.31-4.19-4.19-6.28s-8.12-5-15.45-8.64c-8.12-3.93-14.15-7.86-18.07-11.27-6-5.5-9.17-11.52-9.7-18.59v-3.14c0-7.86,2.1-14.67,6.55-20.17A29.86,29.86,0,0,1,559.41,72.4,45,45,0,0,1,567.27,71.88Z" transform="translate(74.78 43.35)" style="fill: #fff"/>
    <path d="M633.13-38.35H-16A53.88,53.88,0,0,0-69.78,15.37v188A53.89,53.89,0,0,0-16,257.14H493.8l72,38.75a1.16,1.16,0,0,0,1.63-1.46L556,265.88a4.69,4.69,0,0,1,2.26-6l2.7-2.78h72.22a53.89,53.89,0,0,0,53.73-53.73v-188A53.88,53.88,0,0,0,633.13-38.35Z" transform="translate(74.78 43.35)" style="fill: none;stroke: #0e5553;stroke-miterlimit: 10;stroke-width: 10px"/>
  </g>
</svg>
