<svg xmlns="http://www.w3.org/2000/svg" viewBox="0 0 638.7 287.85">
  <title>PELAOS NEGATIVO</title>
  <g>
    <path d="M708.74,66.1h4.35c6.53.22,11.1.66,13.71,1.53q12.74,3.91,18.93,13.05c4.14,6.1,6.32,14.37,6.53,25v3.05c0,12.84-3.48,22.41-10.44,28.94a40.46,40.46,0,0,1-13.71,8.49c-5.44,2-13.06,3.7-23.07,4.78-5.22.66-8.27,1.31-8.92,2-.44.44-.65,1.74-.65,3.92,0,2.39.43,7,1.08,13.93.66,7.18,1.09,11.75,1.09,14.14s-.22,3.7-.65,4.14c-.65.65-5.44,1.52-14.8,2.61-8.49,1.09-13.93,1.52-16.1,1.52-1.52,0-2.61-.43-3.05-1.52q-.33-1-3.26-32-6.53-71.82-7.84-82.26V76.33c0-2.61,1.31-3.91,4.14-3.91a2.84,2.84,0,0,0,2.17-.66q.33-.32,22.85-3.26C694.38,67,703.74,66.1,708.74,66.1Zm-7.18,29.38q-9.46,0-11.1,2c-.65.65-.65,1.74-.43,3.26.21.66.43,4.36,1.08,11.32.66,6.09,1.09,9.36,1.75,10a2.43,2.43,0,0,0,1.74.65c.65,0,2.82-.21,6.09-.65a91.71,91.71,0,0,0,9.36-1.52c5.87-2,8.7-6.1,8.7-12.41,0-5.22-2.18-8.92-6.75-11.09C710.05,95.92,706.56,95.48,701.56,95.48Z" transform="translate(-593.06 -0.97)" style="fill: #fff;stroke: #fff;stroke-miterlimit: 10;stroke-width: 5px"/>
    <path d="M802.52,103.75c9.79,0,18.28,2.83,25,8.49,7.61,6.53,13.05,16.1,15.88,28.72.87,4.14,1.31,6.53,1.31,7a3.58,3.58,0,0,1-.65,2c-.66.87-9.36,2.39-26.55,4.35-17.19,2.17-26.12,3.48-26.55,3.91a2.53,2.53,0,0,0-.44,1.53c0,1.52.87,3.7,2.62,6.09a12.57,12.57,0,0,0,10.88,5.44,10.24,10.24,0,0,0,8.7-4.13c2-2.4,3.48-3.92,4.57-4.36s5-1.08,11.32-1.74c6.74-.65,10.66-1.08,11.31-1.08a2.78,2.78,0,0,1,1.74.43,2.7,2.7,0,0,1,.87,2.39c0,2.18-.87,5-2.61,8.27a37.49,37.49,0,0,1-6.53,8.93c-5.65,5.65-13.27,9.57-22.63,11.53a47.56,47.56,0,0,1-10.66,1.31c-12.41,0-22.63-4.36-30.47-12.84-3.7-4.14-6.31-9.58-8.27-16.33a59,59,0,0,1-1.95-14.79,50.13,50.13,0,0,1,5.22-22.63,37.18,37.18,0,0,1,14.14-15.89A43.69,43.69,0,0,1,802.52,103.75Zm-1.3,20.67a17,17,0,0,0-7.4,2.4c-3.05,1.52-4.79,4.13-5.22,8.27a5.94,5.94,0,0,0-.22,2c0,1.52,1.09,2.17,3,2.17.44,0,3.49-.21,8.93-.87,7.18-.87,10.88-1.3,11.31-1.52a1.75,1.75,0,0,0,1.31-2,9.87,9.87,0,0,0-2-5,12.81,12.81,0,0,0-5-4.13A9.9,9.9,0,0,0,801.22,124.42Z" transform="translate(-593.06 -0.97)" style="fill: #fff;stroke: #fff;stroke-miterlimit: 10;stroke-width: 5px"/>
    <path d="M867.58,65.89c1.74,0,6.75.65,15.24,1.74,8.27,1.3,12.62,2.17,12.84,2.39a4.88,4.88,0,0,1,.65,3c0,1.09-2,20.89-6.09,59.19-4.14,38.52-6.53,58.32-6.75,59.62a2.46,2.46,0,0,1-1.52,2h-.87c-2.62,0-7.84-.65-15.89-1.74s-12.19-1.74-12.84-2.39c-.43-.44-.65-1.31-.65-2.83s2.17-21.76,6.31-60.71c4.13-38.52,6.74-58.32,7.4-59.41A2.75,2.75,0,0,1,867.58,65.89Z" transform="translate(-593.06 -0.97)" style="fill: #fff;stroke: #fff;stroke-miterlimit: 10;stroke-width: 5px"/>
    <path d="M978.13,99.83a6.91,6.91,0,0,1,3.48.87c2,.88,3,1.75,3.26,2.83.87,2.18,2.18,16.11,3.92,42l2.83,40.7-1.31,2.17a6,6,0,0,1-3.7,3.27c-1.52.65-4.78.87-9.35,1.09h-3.92c-2.83,0-4.79-.44-5.66-1.09a9.43,9.43,0,0,1-2.61-3.7c-.44-1.09-.87-2-.87-2a3.13,3.13,0,0,0-1.52.43c-5.88,3.27-13.28,5-21.76,5a46.43,46.43,0,0,1-8.27-.87q-14-2.94-21.55-13.71c-5-7-7.61-16.1-7.61-27.64v-2.39c.21-5.44.87-10,2.17-13.49,4.35-13.06,13.71-21.55,28.07-25.25a56.75,56.75,0,0,1,11.1-1.08,48.27,48.27,0,0,1,11.32,1.08L959,109l.43-2.17a7.69,7.69,0,0,1,2.4-3.92,6,6,0,0,1,3-2c1.09-.22,3.92-.43,8.92-.87A27.53,27.53,0,0,1,978.13,99.83Zm-35.26,28.73a9.15,9.15,0,0,0-8.27,4.79q-3.26,4.89-3.26,13.71a39.35,39.35,0,0,0,3,15c2,5,5,7.4,9.14,7.4a8.47,8.47,0,0,0,6.31-2.83c3.26-3,5-7.62,5-13.93,0-.87-.22-2.61-.43-5.22-1.09-9.79-3.92-15.67-8.27-18.06A6.19,6.19,0,0,0,942.87,128.56Z" transform="translate(-593.06 -0.97)" style="fill: #fff;stroke: #fff;stroke-miterlimit: 10;stroke-width: 5px"/>
    <path d="M1044.71,99.4c8.92,0,16.75,2.18,23.5,6.75a38.43,38.43,0,0,1,14.8,18.71c2.39,6.31,3.48,13.93,3.48,22.85a55.09,55.09,0,0,1-1.74,15.23c-2.61,8.05-6.53,14.36-11.54,18.94a47,47,0,0,1-16.75,9.57c-3.7,1.31-9.14,2-16.11,2-6.74,0-11.53-.44-14.36-1.53-16.32-5.87-25.46-19.36-27.63-40a41.65,41.65,0,0,1-.22-5.87c0-15,4.35-26.33,12.84-34.17,7.4-6.74,16.75-10.88,28.07-12.18A39.93,39.93,0,0,1,1044.71,99.4Zm-3.27,24.37a9.89,9.89,0,0,0-6.31,2.4,13.68,13.68,0,0,0-4.35,5.65c-.87,2-1.31,5.23-1.31,10.23a56.55,56.55,0,0,0,1.09,11.1c2.4,9.79,6.31,15,11.75,15.89h.87a1.12,1.12,0,0,0,.66.21q7.17,0,10.44-8.48c.87-2.4,1.31-6.1,1.31-10.67a38.86,38.86,0,0,0-.87-9.57c-1.53-7.18-3.92-12-7.4-14.58A9.37,9.37,0,0,0,1041.44,123.77Z" transform="translate(-593.06 -0.97)" style="fill: #fff;stroke: #fff;stroke-miterlimit: 10;stroke-width: 5px"/>
    <path d="M1127.39,101.58a82.93,82.93,0,0,1,12.62.87q21.23,3.58,28.73,15.66a25.68,25.68,0,0,1,4.13,13.71c0,2-.43,3.27-1.3,3.92l-.44.22h-.65c-1.09,0-4.79-.65-11.32-2-6.31-1.31-10-2.18-11.53-2.83a3,3,0,0,1-2.18-3c0-1.08-.65-2.17-1.74-3.48a12.23,12.23,0,0,0-3.92-2.61,11.68,11.68,0,0,0-3.91-.87,6.71,6.71,0,0,0-4.14,1.31,4.14,4.14,0,0,0-1.74,3.26c0,2.83,5,6.53,15,11.32q8.16,3.91,12.4,6.53c9.14,5.87,13.71,13.27,13.71,22.41a30.63,30.63,0,0,1-3.26,13.27c-4.36,9.36-13.5,13.93-27.42,13.93A68.48,68.48,0,0,1,1113,188c-8-3.48-13.49-8.27-16.32-14.15a28.07,28.07,0,0,1-3.48-13.92c0-1.75.43-2.83,1.3-3.49a5.29,5.29,0,0,1,1.74-.43q1,0,11.75,2c6.31,1.08,10,2,11.54,2.61a3.25,3.25,0,0,1,2.17,3.26,8.67,8.67,0,0,0,3.48,6.75,11.23,11.23,0,0,0,7.84,2.83c2.83,0,5-.87,6.09-2.83a5.47,5.47,0,0,0,.87-3.05c0-1.74-1.09-3.48-3.48-5.22a103.44,103.44,0,0,0-12.84-7.18,69.78,69.78,0,0,1-15-9.36c-5-4.57-7.62-9.57-8.06-15.45v-2.61c0-6.53,1.74-12.19,5.44-16.76a24.81,24.81,0,0,1,14.8-8.92A37.1,37.1,0,0,1,1127.39,101.58Z" transform="translate(-593.06 -0.97)" style="fill: #fff;stroke: #fff;stroke-miterlimit: 10;stroke-width: 5px"/>
  </g>
  <path d="M1182.12,6H642.7a44.77,44.77,0,0,0-44.64,44.64V206.86A44.77,44.77,0,0,0,642.7,251.5h423.65l59.84,32.2a1,1,0,0,0,1.35-1.21L1118,258.76a3.9,3.9,0,0,1,1.89-4.95l2.24-2.31h60a44.77,44.77,0,0,0,44.64-44.64V50.61A44.77,44.77,0,0,0,1182.12,6Z" transform="translate(-593.06 -0.97)" style="fill: none;stroke: #fff;stroke-miterlimit: 10;stroke-width: 10px"/>
</svg>
